<svg xmlns="http://www.w3.org/2000/svg" xmlns:xlink="http://www.w3.org/1999/xlink" width="311.71" height="97.711" viewBox="0 0 311.71 97.711"><defs><style>.a{fill:#fff;}.b{fill:url(#a);}</style><linearGradient id="a" y1="0.5" x2="1" y2="0.5" gradientUnits="objectBoundingBox"><stop offset="0" stop-color="#d2297c"/><stop offset="0.12" stop-color="#cb297c"/><stop offset="0.289" stop-color="#b9297c"/><stop offset="0.487" stop-color="#9b2a7c"/><stop offset="0.707" stop-color="#712a7d"/><stop offset="0.941" stop-color="#3c2b7d"/><stop offset="1" stop-color="#2e2c7e"/></linearGradient></defs><g transform="translate(351.494 -531.397)"><g transform="translate(-276.355 549.747)"><path class="a" d="M-262.618,560.919q4.242,3.834,4.242,11.57v21.242h-8.008V589.32a9.873,9.873,0,0,1-4.446,3.629,17.364,17.364,0,0,1-6.956,1.257,17.06,17.06,0,0,1-7.125-1.392,11,11,0,0,1-4.718-3.869,9.816,9.816,0,0,1-1.662-5.6,9.6,9.6,0,0,1,3.631-7.838q3.63-2.952,11.436-2.952h9.364v-.543a7.427,7.427,0,0,0-2.273-5.836q-2.275-2.037-6.753-2.037a19.51,19.51,0,0,0-6.006.95,14.8,14.8,0,0,0-4.989,2.647l-3.325-6.175a20.59,20.59,0,0,1,6.854-3.325,30.462,30.462,0,0,1,8.483-1.154Q-266.86,557.084-262.618,560.919Zm-7.736,25.652a7.938,7.938,0,0,0,3.495-4.174V578.19h-8.754q-7.329,0-7.33,4.817a4.326,4.326,0,0,0,1.833,3.666,8.4,8.4,0,0,0,5.09,1.357A10.95,10.95,0,0,0-270.354,586.571Z" transform="translate(291.29 -543.375)"/><path class="a" d="M-233.476,593.274a9.994,9.994,0,0,1-3.631,1.832,16.361,16.361,0,0,1-4.513.612q-5.972,0-9.23-3.123t-3.257-9.094V566.059h-5.972v-6.786h5.972v-8.28h8.483v8.28h9.7v6.786h-9.7V583.3a5.731,5.731,0,0,0,1.289,4.038,4.839,4.839,0,0,0,3.733,1.39,7.456,7.456,0,0,0,4.75-1.492Z" transform="translate(299.033 -544.886)"/><path class="a" d="M-206.558,560.919q4.242,3.834,4.242,11.57v21.242h-8.008V589.32a9.874,9.874,0,0,1-4.446,3.629,17.364,17.364,0,0,1-6.956,1.257,17.064,17.064,0,0,1-7.125-1.392,11,11,0,0,1-4.718-3.869,9.816,9.816,0,0,1-1.662-5.6,9.594,9.594,0,0,1,3.632-7.838q3.628-2.952,11.435-2.952h9.364v-.543a7.427,7.427,0,0,0-2.273-5.836q-2.275-2.037-6.753-2.037a19.511,19.511,0,0,0-6.006.95,14.782,14.782,0,0,0-4.987,2.647l-3.326-6.175a20.59,20.59,0,0,1,6.854-3.325,30.462,30.462,0,0,1,8.483-1.154Q-210.8,557.084-206.558,560.919Zm-7.736,25.652A7.933,7.933,0,0,0-210.8,582.4V578.19h-8.754q-7.329,0-7.33,4.817a4.326,4.326,0,0,0,1.833,3.666,8.4,8.4,0,0,0,5.09,1.357A10.95,10.95,0,0,0-214.294,586.571Z" transform="translate(305.197 -543.375)"/><path class="a" d="M-163.8,546.1v50.356h-8.144v-4.683a13.117,13.117,0,0,1-5.192,3.868,17.549,17.549,0,0,1-6.819,1.29,19.1,19.1,0,0,1-9.4-2.309,16.578,16.578,0,0,1-6.549-6.549,19.581,19.581,0,0,1-2.374-9.737,19.4,19.4,0,0,1,2.374-9.705,16.653,16.653,0,0,1,6.549-6.515,19.11,19.11,0,0,1,9.4-2.308,17.245,17.245,0,0,1,6.582,1.222,13.25,13.25,0,0,1,5.09,3.664V546.1Zm-13.641,42.177a10.03,10.03,0,0,0,3.869-3.969,12.149,12.149,0,0,0,1.425-5.972,12.161,12.161,0,0,0-1.425-5.973,10.053,10.053,0,0,0-3.869-3.969,10.907,10.907,0,0,0-5.5-1.392,10.91,10.91,0,0,0-5.5,1.392,10.059,10.059,0,0,0-3.868,3.969,12.147,12.147,0,0,0-1.425,5.973,12.135,12.135,0,0,0,1.425,5.972,10.035,10.035,0,0,0,3.868,3.969,10.9,10.9,0,0,0,5.5,1.392A10.9,10.9,0,0,0-177.442,588.277Z" transform="translate(313.371 -546.1)"/><path class="a" d="M-155.56,591.83a17.3,17.3,0,0,1-6.888-6.617,18.68,18.68,0,0,1-2.476-9.6,18.506,18.506,0,0,1,2.476-9.569,17.408,17.408,0,0,1,6.888-6.584,20.573,20.573,0,0,1,9.908-2.375,20.724,20.724,0,0,1,9.977,2.375,17.416,17.416,0,0,1,6.888,6.584,18.518,18.518,0,0,1,2.476,9.569,18.692,18.692,0,0,1-2.476,9.6,17.312,17.312,0,0,1-6.888,6.617,20.712,20.712,0,0,1-9.977,2.376A20.561,20.561,0,0,1-155.56,591.83Zm17.645-8.008a11.24,11.24,0,0,0,3.054-8.211,11.243,11.243,0,0,0-3.054-8.212,10.372,10.372,0,0,0-7.737-3.121,10.257,10.257,0,0,0-7.7,3.121,11.309,11.309,0,0,0-3.02,8.212,11.306,11.306,0,0,0,3.02,8.211,10.248,10.248,0,0,0,7.7,3.121A10.362,10.362,0,0,0-137.914,583.823Z" transform="translate(322.638 -543.375)"/><path class="a" d="M-120.351,591.83a17.421,17.421,0,0,1-6.99-6.617,18.485,18.485,0,0,1-2.511-9.6,18.313,18.313,0,0,1,2.511-9.569,17.588,17.588,0,0,1,6.956-6.584,21.2,21.2,0,0,1,10.147-2.375,19.547,19.547,0,0,1,9.4,2.172,14.1,14.1,0,0,1,6.074,6.244l-6.515,3.8a10.364,10.364,0,0,0-3.9-3.767,10.677,10.677,0,0,0-5.123-1.256,10.73,10.73,0,0,0-7.872,3.088,11.076,11.076,0,0,0-3.123,8.246,11.143,11.143,0,0,0,3.088,8.245,10.7,10.7,0,0,0,7.907,3.088,10.663,10.663,0,0,0,5.123-1.255,10.345,10.345,0,0,0,3.9-3.767l6.515,3.8A14.689,14.689,0,0,1-100.909,592a19.142,19.142,0,0,1-9.331,2.207A21.24,21.24,0,0,1-120.351,591.83Z" transform="translate(331.338 -543.375)"/></g><path class="b" d="M-327.058,602.253v26.539c-11.088,2.317-24.107-8.449-24.255-19.844-.187-14.389-.306-28.788.037-43.172.428-17.942,16.116-33.606,33.843-34.343,19.546-.815,35.918,12.924,38.277,32.115,2.234,18.179-10.394,35.754-28.4,39.322a42.85,42.85,0,0,1-9.547.8C-320.252,603.574-323.381,602.806-327.058,602.253Zm-3.581-34.714a15.179,15.179,0,0,0,15.26,15.555,15.11,15.11,0,0,0,15.611-15.624,15.093,15.093,0,0,0-15.456-15.331A15.172,15.172,0,0,0-330.639,567.538Z"/></g></svg>